<?xml version="1.0" standalone="no"?>
<!DOCTYPE svg PUBLIC "-//W3C//DTD SVG 20010904//EN"
 "http://www.w3.org/TR/2001/REC-SVG-20010904/DTD/svg10.dtd">
<svg version="1.0" xmlns="http://www.w3.org/2000/svg"
 width="512.000000pt" height="512.000000pt" viewBox="0 0 512.000000 512.000000"
 preserveAspectRatio="xMidYMid meet">
<metadata>
Created by potrace 1.11, written by Peter Selinger 2001-2013
</metadata>
<g transform="translate(0.000000,512.000000) scale(0.100000,-0.100000)"
fill="#000000" stroke="none">
<path d="M221 3781 c-1 -8 -4 -12 -7 -8 -3 3 -26 -14 -51 -39 -41 -39 -73 -59
-59 -35 3 5 -5 12 -19 15 -28 7 -69 -10 -60 -25 4 -5 -1 -9 -9 -9 -10 0 -13
-7 -10 -22 3 -13 6 -28 6 -35 1 -7 5 -10 9 -7 7 4 22 -28 24 -49 0 -4 7 -12
15 -17 8 -5 12 -10 8 -10 -9 0 264 -270 273 -270 5 0 9 -4 9 -8 0 -5 19 -29
42 -53 23 -24 38 -38 34 -30 -6 10 -5 12 2 7 7 -4 12 -11 12 -16 0 -11 98
-108 104 -103 2 2 7 -12 10 -31 5 -28 38 -66 159 -188 153 -153 156 -158 183
-255 3 -14 72 -48 81 -40 3 4 28 -16 55 -43 44 -44 48 -51 36 -67 -7 -10 -20
-19 -28 -21 -8 -2 -18 -8 -21 -14 -3 -5 -8 -9 -10 -8 -5 2 -35 -8 -64 -20 -46
-19 -97 -31 -110 -26 -8 3 -17 1 -20 -5 -4 -5 -10 -7 -15 -4 -5 3 -11 1 -15
-4 -3 -6 -15 -7 -29 -1 -16 6 -28 5 -36 -3 -10 -9 -14 -9 -17 1 -3 6 -8 10
-12 8 -15 -10 -61 -14 -61 -7 0 5 -18 9 -39 9 -34 1 -41 -3 -52 -30 -7 -17
-13 -55 -13 -84 -1 -30 -3 -54 -6 -54 -6 0 -11 -27 -13 -80 -1 -22 3 -35 11
-36 6 -1 13 -2 15 -4 5 -4 54 -9 114 -11 40 -1 60 -5 56 -12 -4 -6 -1 -7 8 -2
7 5 43 10 79 12 71 3 154 10 158 13 1 2 7 4 12 5 6 1 11 3 13 5 3 2 40 11 55
12 6 1 12 6 12 11 0 5 8 3 17 -4 11 -10 14 -10 9 -1 -6 10 0 14 20 11 3 0 16
7 30 15 13 9 24 14 24 11 0 -3 10 3 22 14 11 11 25 18 30 15 4 -3 8 0 8 6 0 6
5 8 10 5 6 -3 10 -22 10 -42 0 -32 9 -45 71 -106 50 -49 76 -68 89 -64 26 7
31 -15 14 -49 -9 -16 -15 -30 -15 -31 5 -17 -1 -43 -8 -38 -6 3 -8 -4 -6 -15
2 -11 -2 -39 -8 -63 -7 -23 -11 -54 -9 -70 4 -29 74 -106 80 -88 2 7 13 5 27
-5 15 -10 33 -13 47 -9 30 9 59 35 52 46 -3 5 -1 9 3 9 5 0 10 19 12 42 1 23
4 45 7 50 3 5 8 21 11 36 7 39 9 44 21 75 6 15 14 27 17 27 4 0 3 -5 -1 -11
-4 -7 -1 -10 7 -7 13 4 74 -101 64 -111 -3 -2 2 -13 12 -23 9 -10 13 -18 10
-18 -4 0 2 -16 13 -35 11 -20 20 -40 20 -45 0 -5 12 -35 26 -67 15 -32 26 -59
25 -61 -2 -2 5 -14 13 -28 9 -13 14 -24 10 -24 -4 0 0 -7 7 -16 7 -9 14 -21
15 -28 1 -6 10 -31 21 -56 11 -25 26 -58 33 -75 8 -16 14 -32 15 -35 3 -8 25
-62 42 -100 39 -89 46 -99 78 -102 35 -3 40 1 196 154 130 128 132 138 62 224
-84 101 -163 207 -163 217 0 5 -3 8 -6 4 -6 -6 -74 77 -74 91 0 4 -11 16 -25
26 -13 10 -23 21 -21 25 6 9 -52 55 -72 58 -17 2 -30 17 -87 100 -32 45 -37
60 -39 120 -2 37 -4 68 -5 68 -2 0 -5 11 -7 25 -3 14 -9 27 -14 28 -6 2 -10 8
-10 12 0 5 -113 122 -251 260 -206 207 -248 254 -238 266 9 11 9 14 -2 14 -11
0 -11 2 1 10 10 6 11 10 3 10 -7 0 -13 4 -13 9 0 12 -89 99 -95 93 -3 -3 -5 2
-5 12 0 9 -4 15 -8 12 -5 -3 -15 6 -22 19 -7 14 -21 25 -31 25 -9 0 -20 6 -22
13 -4 9 -6 9 -6 0 -2 -28 -53 11 -186 144 -77 76 -147 138 -155 138 -8 -1 -61
45 -117 101 -96 96 -136 123 -148 103 -3 -4 -17 -4 -30 1 -16 6 -25 6 -25 -1
0 -6 -6 -6 -19 0 -10 6 -20 8 -23 6 -3 -3 -39 28 -80 69 -74 72 -75 74 -63
102 15 34 60 96 66 90 2 -3 4 13 4 34 0 21 -1 37 -3 35 -2 -2 -13 6 -24 17
-11 11 -26 17 -33 14 -8 -3 -16 0 -19 7 -3 8 -5 7 -5 -2z m33 -66 c3 -8 -3
-20 -14 -28 -11 -8 -17 -18 -13 -23 4 -5 2 -4 -6 3 -9 7 -11 21 -7 37 7 28 30
35 40 11z m-161 -65 c8 -12 18 -20 23 -18 5 2 10 -1 11 -5 1 -5 11 -17 22 -26
12 -10 21 -28 21 -40 0 -11 9 -26 20 -33 11 -7 20 -16 20 -20 0 -7 48 -58 54
-58 9 0 73 -70 68 -75 -3 -3 7 -5 21 -5 15 0 27 -4 27 -10 0 -5 6 -7 14 -4 8
3 17 1 21 -5 3 -6 2 -11 -3 -11 -5 0 -7 -11 -4 -25 2 -14 9 -25 14 -25 11 0
39 -26 33 -31 -2 -2 12 -15 31 -29 18 -14 36 -33 39 -42 4 -10 13 -18 21 -18
8 0 13 -4 10 -8 -3 -5 8 -16 25 -26 17 -10 27 -22 23 -29 -4 -7 5 -1 19 12 15
14 27 19 27 13 0 -7 -5 -12 -11 -12 -5 0 -7 -5 -3 -12 4 -6 3 -8 -3 -5 -6 4
-14 0 -17 -8 -3 -8 -11 -14 -17 -13 -22 5 -513 502 -514 521 -1 10 -6 22 -11
25 -13 10 -17 42 -5 42 5 0 16 -9 24 -20z m373 -307 c-10 -10 -19 5 -10 18 6
11 8 11 12 0 2 -7 1 -15 -2 -18z m69 -18 c20 -20 35 -38 32 -41 -2 -3 -13 5
-23 18 -11 13 -30 31 -44 41 -13 9 -20 17 -14 17 6 0 28 -16 49 -35z m-29 -37
c3 -10 12 -18 20 -18 8 0 13 -5 12 -12 -2 -7 2 -12 8 -13 17 0 78 -75 62 -75
-8 0 -21 11 -28 25 -7 14 -17 25 -21 25 -8 0 -89 75 -89 83 0 13 31 1 36 -15z
m98 -33 c11 -8 18 -17 15 -19 -2 -2 -15 4 -28 15 -27 22 -15 26 13 4z m46 -50
c14 -19 14 -19 -2 -6 -10 7 -18 18 -18 24 0 6 1 8 3 6 1 -2 9 -13 17 -24z m40
-23 c0 -5 -6 -16 -13 -26 -13 -18 -14 -18 -14 0 0 11 5 22 11 26 14 10 16 10
16 0z m78 -52 c6 0 14 -9 17 -20 3 -11 13 -20 21 -20 8 0 12 -4 9 -10 -3 -5 1
-10 9 -10 8 0 18 -9 21 -20 3 -11 11 -20 16 -20 12 0 49 -38 49 -51 0 -5 3 -9
8 -7 4 2 19 -9 34 -24 15 -15 24 -28 20 -28 -4 0 4 -8 18 -18 32 -21 32 -31
-3 -66 -22 -22 -25 -30 -15 -41 7 -7 46 -47 86 -88 51 -52 71 -79 66 -90 -3
-9 -10 -14 -15 -11 -5 3 -12 -2 -15 -11 -13 -32 -39 -35 -68 -8 -15 14 -30 23
-33 20 -9 -10 -63 15 -64 29 -5 53 -39 101 -147 211 -61 61 -108 114 -104 118
4 4 2 5 -3 3 -6 -1 -25 9 -43 24 -29 24 -30 28 -15 37 10 5 18 13 18 18 -1 14
38 53 47 47 4 -3 8 1 8 8 0 7 10 22 23 34 18 19 24 20 33 8 6 -8 16 -14 22
-14z m338 -280 c9 0 12 -4 9 -10 -3 -5 -1 -10 4 -10 6 0 11 -7 11 -15 0 -12
-5 -13 -26 -4 -27 10 -64 4 -64 -10 0 -4 -7 -8 -15 -8 -21 0 -20 3 22 44 22
23 38 32 41 25 2 -7 10 -12 18 -12z m74 -72 c0 -6 8 -21 18 -32 11 -13 12 -17
2 -10 -24 18 -90 23 -90 6 0 -8 -8 -12 -17 -10 -10 2 -17 11 -17 20 1 11 -4
14 -14 11 -9 -4 -13 -2 -9 4 4 6 23 10 42 8 19 -2 37 1 40 6 9 13 45 11 45 -3z
m33 -67 c-13 -11 -23 -24 -23 -30 0 -13 -39 -15 -57 -3 -7 4 -9 13 -4 21 5 7
14 10 20 7 6 -4 11 -1 11 6 0 10 2 10 8 1 6 -9 13 -9 32 1 35 20 39 18 13 -3z
m534 -576 c5 -11 9 -37 8 -57 -1 -21 3 -38 8 -38 5 0 5 -6 -1 -13 -6 -7 -7
-18 -2 -26 6 -10 -5 -27 -36 -58 -24 -23 -48 -43 -53 -43 -4 0 -17 11 -27 25
-10 14 -23 26 -29 26 -5 1 -34 27 -63 59 -36 39 -48 57 -35 55 10 -1 17 -8 15
-15 -1 -6 2 -9 8 -5 22 14 7 42 -55 101 -36 34 -65 67 -65 74 0 6 -4 9 -8 6
-5 -3 -16 4 -25 15 -9 10 -13 19 -9 20 4 0 -2 4 -13 8 -27 11 -37 4 -30 -22 5
-19 2 -17 -20 8 -47 53 -65 75 -65 81 0 3 -6 11 -13 18 -7 8 -29 33 -48 57
-18 24 -49 58 -66 77 -36 37 -41 52 -18 52 8 0 14 3 13 8 -2 4 22 32 52 63
l55 56 256 -256 c141 -141 260 -266 266 -276z m-597 270 c7 -8 10 -15 6 -15
-6 0 30 -43 72 -86 12 -13 22 -26 22 -30 0 -13 -43 -54 -56 -54 -7 0 -14 -3
-16 -7 -1 -5 -17 -18 -35 -30 -22 -16 -33 -19 -36 -10 -4 7 -6 6 -6 -4 -1 -10
-14 -19 -33 -24 -18 -4 -37 -9 -43 -11 -5 -1 -20 -5 -33 -8 -13 -3 -31 -7 -40
-10 -58 -18 -313 -28 -323 -13 -4 5 -15 4 -28 -2 -14 -8 -21 -8 -21 -1 0 5 -7
10 -15 10 -8 0 -15 5 -15 11 0 5 3 8 8 6 4 -3 6 14 6 36 -1 23 1 47 5 52 3 6
6 19 7 30 3 49 5 56 15 49 6 -3 9 -15 6 -25 -4 -14 1 -21 18 -25 13 -3 29 -3
34 1 7 3 8 0 5 -9 -7 -19 -25 -20 -43 -3 -11 10 -13 9 -7 -1 4 -7 1 -15 -9
-18 -12 -5 -13 -9 -4 -21 7 -7 18 -12 24 -9 7 2 18 0 25 -4 8 -5 22 -4 31 1
11 5 20 5 23 0 7 -10 102 -8 112 2 4 4 12 7 17 7 6 0 7 -3 4 -7 -4 -3 -1 -13
6 -21 10 -13 9 -14 -10 -4 -14 8 -24 9 -28 2 -8 -13 -45 -13 -45 0 0 7 -6 7
-19 0 -25 -13 -44 -13 -36 1 9 13 -27 8 -37 -5 -4 -6 -12 -6 -20 0 -21 16 -58
15 -58 -2 0 -14 14 -22 69 -39 17 -5 21 -4 16 5 -6 9 -3 9 14 1 15 -8 27 -9
40 -1 13 7 22 7 26 0 6 -10 45 -7 65 5 5 3 10 1 10 -5 0 -7 6 -8 18 -1 10 5
42 11 70 12 29 2 52 6 52 9 0 4 6 7 13 8 39 3 57 7 57 12 0 3 17 12 38 19 20
8 54 25 74 38 21 12 42 23 48 23 6 0 8 5 5 10 -3 6 -2 10 4 10 6 0 8 7 5 15
-4 8 -15 15 -26 15 -15 0 -19 5 -15 20 4 16 0 20 -19 20 -13 0 -24 -5 -24 -11
0 -5 -4 -7 -10 -4 -5 3 -10 1 -10 -5 0 -6 -4 -8 -10 -5 -5 3 -10 1 -10 -4 0
-6 -7 -11 -15 -11 -8 0 -15 -4 -15 -10 0 -5 -18 -13 -40 -16 -22 -4 -38 -10
-36 -13 3 -4 -4 -8 -15 -8 -24 -2 -25 16 -1 23 72 23 199 104 161 104 -5 0 -7
5 -4 10 3 6 0 10 -7 10 -18 -1 -48 -25 -48 -39 0 -6 -3 -11 -7 -10 -17 2 -53
-14 -53 -24 0 -6 -3 -8 -6 -5 -3 4 -20 0 -39 -7 -18 -8 -35 -11 -39 -8 -3 4
-6 1 -6 -6 0 -8 -5 -9 -17 -2 -12 6 -26 5 -44 -4 -15 -8 -29 -11 -33 -8 -3 4
-6 1 -6 -6 0 -8 -5 -9 -17 -2 -10 5 -26 5 -40 0 -18 -6 -23 -5 -23 6 0 10 11
15 38 16 20 0 44 2 52 4 72 19 90 22 94 17 3 -2 12 0 19 6 7 7 22 13 33 15 10
1 26 7 34 12 32 21 76 44 93 51 9 3 17 10 17 15 0 14 26 10 40 -6z m-497 -118
c3 -8 -1 -14 -9 -14 -8 0 -14 6 -14 14 0 7 4 13 9 13 5 0 11 -6 14 -13z m62
-5 c-3 -3 -15 -7 -27 -9 -17 -3 -19 -1 -9 11 7 8 19 12 27 9 8 -3 12 -8 9 -11z
m428 -18 c-11 -11 -26 -20 -34 -22 -8 -2 -15 -8 -17 -13 -2 -5 -10 -9 -18 -9
-8 0 -28 -7 -44 -15 -16 -8 -37 -16 -47 -18 -10 -1 -24 -7 -32 -12 -10 -5 -16
-4 -19 4 -3 8 -8 9 -16 2 -17 -14 -65 -21 -71 -10 -6 9 -3 10 33 13 9 1 23 5
30 10 8 4 20 2 29 -6 14 -11 16 -11 11 2 -4 12 2 15 28 15 18 -1 32 3 31 8 -1
5 7 11 18 13 27 4 68 26 78 41 4 7 15 13 22 13 8 0 15 5 15 12 0 9 3 9 11 1 8
-8 6 -16 -8 -29z m-213 -19 c0 -6 -6 -12 -12 -13 -7 0 -25 -3 -40 -6 -16 -4
-28 -2 -28 4 0 5 -16 1 -35 -10 -22 -12 -37 -16 -41 -9 -3 6 -3 13 0 16 3 4 6
0 6 -8 1 -10 5 -8 15 5 8 11 18 17 21 13 4 -4 13 -2 20 4 7 6 14 6 18 0 7 -10
46 -3 46 8 0 4 7 8 15 8 8 0 15 -6 15 -12z m-204 -25 c8 0 12 4 9 10 -3 6 1 7
9 4 9 -3 13 -10 10 -15 -7 -13 -41 -11 -50 2 -4 8 -9 8 -17 0 -20 -20 -30 -11
-12 9 16 18 20 19 27 5 5 -8 16 -15 24 -15z m553 -26 c-9 -11 -15 -12 -23 -4
-8 8 -6 15 9 26 23 17 34 2 14 -22z m107 -2 c-6 -5 -36 23 -36 34 0 4 9 -1 20
-11 11 -10 18 -20 16 -23z m-28 -39 l35 -37 -37 -17 c-20 -8 -39 -19 -43 -24
-5 -4 -2 -5 6 0 10 6 12 4 7 -4 -6 -9 -16 -4 -36 15 -26 26 -27 30 -13 51 9
13 19 23 24 23 5 0 9 7 9 15 0 23 9 18 48 -22z m102 -41 c0 -3 -11 5 -25 18
-14 13 -25 27 -25 32 0 5 11 -3 25 -18 14 -15 25 -29 25 -32z m29 -16 c8 -10
9 -16 1 -21 -6 -4 -9 -1 -8 7 2 7 -3 12 -10 10 -8 -1 -11 2 -7 8 8 13 10 13
24 -4z m-79 -68 c0 -19 -36 -25 -52 -9 -16 16 -15 17 18 17 18 0 34 -4 34 -8z
m127 -57 c56 -55 71 -81 47 -81 -15 0 -23 -13 -29 -47 -2 -10 -4 -19 -5 -20
-2 -2 -3 -6 -4 -10 -1 -5 -5 -14 -10 -22 -7 -10 -6 -12 4 -6 9 5 11 4 6 -4 -4
-6 -9 -24 -12 -39 -2 -15 -7 -38 -11 -52 -3 -14 -7 -27 -7 -30 -5 -25 -49 -35
-64 -14 -4 5 -14 9 -22 9 -23 0 -47 51 -35 72 6 10 11 27 10 38 0 11 6 26 13
33 7 8 10 18 7 23 -3 5 0 28 6 51 7 24 13 62 13 86 1 38 15 61 37 62 4 0 29
-22 56 -49z m267 -72 c-2 -4 3 -10 12 -13 8 -3 12 -10 9 -16 -3 -5 -1 -10 5
-10 5 0 18 -16 27 -35 17 -36 44 -52 64 -39 8 4 9 3 5 -4 -4 -7 -2 -12 4 -12
14 0 28 -14 60 -60 14 -19 33 -43 42 -52 10 -10 18 -23 18 -29 0 -5 4 -8 9 -5
4 3 13 -5 19 -19 11 -23 38 -59 75 -97 9 -10 17 -22 17 -28 0 -5 5 -10 10 -10
6 0 10 -7 10 -15 0 -8 3 -15 8 -15 11 0 92 -107 92 -122 0 -7 -9 -20 -19 -28
-11 -7 -18 -17 -15 -22 3 -4 0 -8 -6 -8 -6 0 -35 -25 -65 -55 -29 -30 -58 -55
-63 -55 -5 0 -12 -9 -15 -21 -3 -12 -10 -18 -16 -15 -5 4 -12 -3 -16 -14 -7
-21 -22 -25 -41 -12 -11 7 -55 99 -69 142 -1 3 -6 16 -13 30 -24 55 -55 125
-57 130 -1 3 -5 17 -9 33 -5 15 -13 27 -18 27 -6 0 -7 7 -4 15 3 9 -1 18 -8
21 -8 3 -13 13 -12 22 2 9 -3 23 -11 31 -8 7 -12 19 -9 26 3 8 -2 16 -10 19
-8 3 -13 9 -13 13 2 9 -8 40 -22 65 -5 10 -9 25 -9 33 0 8 -4 15 -10 15 -5 0
-10 12 -10 26 0 16 -4 23 -12 18 -7 -5 -9 -1 -6 12 3 11 -1 25 -9 32 -7 7 -11
17 -8 23 4 5 1 9 -5 9 -6 0 -9 4 -5 9 3 5 0 13 -6 16 -6 5 -2 13 13 23 13 9
32 26 43 38 18 21 21 21 36 6 9 -9 15 -20 13 -23z"/>
<path d="M707 3103 c-17 -16 -4 -45 39 -87 49 -47 74 -51 66 -10 -2 14 -7 23
-10 20 -2 -3 -19 10 -37 29 -17 19 -37 35 -44 35 -7 0 -9 5 -6 10 7 11 2 13
-8 3z"/>
<path d="M842 2958 c-15 -15 -5 -35 47 -84 41 -40 64 -51 62 -31 -1 4 -1 17
-1 29 0 12 -3 19 -6 15 -4 -3 -25 14 -49 38 -30 32 -45 41 -53 33z"/>
<path d="M1241 2592 c-8 -15 -6 -23 8 -36 22 -20 41 -21 41 -1 0 8 1 18 3 21
1 4 -8 13 -20 21 -19 13 -23 13 -32 -5z"/>
<path d="M1177 2573 c-11 -11 -8 -22 13 -43 11 -11 16 -20 11 -20 -6 0 -16 8
-23 18 -19 25 -37 25 -34 -2 2 -12 24 -44 51 -69 37 -37 51 -45 61 -36 9 7 14
8 14 1 0 -5 9 -8 20 -5 14 4 20 0 20 -11 0 -9 3 -16 8 -16 4 0 20 -11 35 -25
15 -14 27 -21 27 -16 0 5 3 16 6 24 5 14 -70 97 -88 97 -4 0 -8 4 -8 9 0 12
-87 101 -98 101 -5 0 -12 -3 -15 -7z"/>
<path d="M1406 2435 c-3 -9 -6 -18 -6 -20 0 -2 23 -27 50 -55 28 -28 50 -56
50 -61 0 -5 4 -8 8 -6 5 1 40 -30 78 -69 38 -38 77 -73 87 -77 35 -13 16 23
-47 87 -35 36 -61 68 -58 71 3 3 0 5 -7 5 -7 0 -44 32 -81 70 -53 55 -69 67
-74 55z"/>
<path d="M1413 2324 c-7 -7 -13 -18 -13 -24 0 -5 -6 -10 -12 -11 -7 0 -4 -4 7
-8 22 -9 55 7 55 25 0 21 -24 33 -37 18z"/>
<path d="M1448 2276 c-22 -16 -24 -46 -3 -46 8 0 15 5 15 11 0 5 4 8 9 5 11
-7 23 22 15 35 -7 12 -16 11 -36 -5z"/>
<path d="M1486 2235 c-18 -14 -16 -45 2 -45 12 0 36 28 38 46 3 18 -16 17 -40
-1z"/>
<path d="M1523 2203 c-14 -5 -18 -54 -5 -52 28 5 40 -3 35 -21 -6 -24 24 -29
33 -5 4 8 9 13 13 11 4 -3 7 6 7 18 0 23 -10 27 -33 13 -6 -4 -14 -3 -17 2 -4
5 -2 12 4 16 28 17 -3 32 -37 18z"/>
<path d="M1636 2084 c-3 -8 -11 -12 -17 -8 -8 4 -9 3 -5 -4 4 -7 2 -12 -5 -12
-7 0 -9 -3 -6 -6 3 -4 2 -15 -4 -25 -6 -13 -6 -19 1 -19 5 0 10 -6 10 -13 0
-8 10 -18 23 -24 27 -12 76 8 78 32 1 8 2 21 3 28 2 11 -32 52 -44 52 -3 0
-10 4 -16 8 -7 4 -15 0 -18 -9z m37 -65 c-17 -17 -37 -1 -22 17 8 10 15 12 23
4 7 -7 7 -13 -1 -21z"/>
<path d="M1773 1773 c-7 -2 -9 -12 -7 -21 7 -22 24 -63 35 -84 5 -10 9 -25 9
-33 0 -8 5 -15 10 -15 6 0 10 -6 10 -13 0 -8 6 -27 14 -43 23 -45 39 -88 38
-96 -1 -5 3 -8 8 -8 6 0 10 -7 10 -15 0 -8 4 -23 10 -33 14 -25 60 -132 60
-138 0 -15 69 -153 81 -159 8 -5 10 -4 5 3 -4 7 -3 12 3 12 12 0 9 18 -7 48
-7 12 -10 22 -7 22 4 0 -1 7 -9 16 -9 8 -14 20 -11 25 4 5 1 9 -4 9 -6 0 -11
9 -11 20 0 11 -4 20 -10 20 -5 0 -10 7 -10 15 0 9 -9 35 -20 57 -23 47 -23 48
-12 48 8 0 38 -61 34 -72 -1 -5 2 -8 8 -8 5 0 10 -7 10 -15 0 -8 9 -30 20 -50
11 -19 17 -35 14 -35 -12 0 27 -44 40 -46 12 -2 13 3 5 24 -6 15 -10 28 -10
29 0 2 -7 20 -16 40 -9 21 -16 41 -15 46 1 4 -2 7 -8 7 -5 0 -10 9 -10 19 0
11 -4 23 -10 26 -5 3 -10 15 -10 25 0 10 -5 20 -10 22 -6 2 -12 13 -13 26 0
12 -4 22 -7 22 -4 0 -12 16 -20 35 -16 41 -22 43 -43 13 -14 -20 -16 -20 -16
-5 -1 10 -10 36 -21 58 -12 22 -18 44 -15 48 2 5 -2 12 -11 15 -8 3 -13 10
-10 15 3 5 -1 14 -9 21 -8 7 -12 16 -9 21 2 5 -2 19 -11 32 -8 13 -13 26 -10
29 8 8 -19 26 -32 21z m179 -329 c2 -5 -1 -11 -6 -14 -5 -3 -10 2 -12 10 -2 8
-6 26 -9 40 l-6 25 15 -26 c8 -14 16 -30 18 -35z"/>
<path d="M4860 3769 c0 -5 -4 -8 -9 -4 -12 7 -33 -29 -24 -39 3 -3 1 -6 -6 -6
-8 0 -5 -14 10 -40 12 -21 27 -36 32 -33 6 3 7 1 3 -5 -3 -6 0 -17 8 -24 7 -8
17 -24 21 -37 6 -19 -4 -33 -63 -91 -77 -75 -107 -96 -117 -80 -4 6 -12 7 -22
1 -9 -5 -29 -5 -45 -1 -19 6 -28 5 -28 -3 0 -7 -4 -6 -10 3 -5 8 -10 10 -10 4
0 -14 -108 -123 -115 -116 -3 3 -5 1 -5 -5 0 -12 -70 -86 -70 -74 0 3 -5 -1
-10 -9 -9 -13 -10 -13 -10 0 -1 12 -3 11 -11 -2 -5 -10 -14 -18 -20 -18 -5 0
-72 -63 -150 -141 -105 -105 -143 -138 -153 -130 -16 14 -43 -5 -131 -94 -38
-38 -73 -69 -77 -68 -4 2 -6 -14 -3 -35 3 -31 -1 -43 -25 -69 -16 -18 -34 -33
-40 -33 -5 0 -10 -4 -10 -8 0 -9 -121 -135 -130 -136 -3 -1 -4 -3 -3 -6 1 -3
-12 -15 -28 -25 -16 -11 -29 -26 -29 -32 0 -7 -7 -13 -17 -13 -9 0 -13 -3 -10
-6 4 -4 -9 -19 -28 -34 -19 -15 -32 -30 -29 -33 3 -3 -4 -8 -15 -12 -12 -3
-21 -10 -21 -14 0 -5 -26 -35 -58 -67 -52 -52 -73 -82 -76 -106 -1 -3 -4 -9
-8 -13 -4 -4 -3 -18 2 -31 5 -13 6 -24 2 -24 -5 0 -7 -17 -5 -37 2 -29 -5 -48
-35 -91 -20 -30 -41 -62 -47 -73 -5 -10 -22 -23 -38 -29 -26 -9 -127 -100
-112 -100 8 0 -76 -103 -87 -108 -5 -2 -8 -10 -8 -18 0 -8 -7 -17 -15 -20 -8
-4 -15 -11 -15 -18 0 -6 -9 -18 -20 -26 -11 -8 -20 -20 -20 -28 0 -7 -4 -11
-9 -8 -5 3 -14 -8 -21 -24 -7 -17 -16 -30 -20 -30 -3 0 -22 -21 -40 -47 -19
-27 -37 -50 -41 -53 -13 -10 0 -59 20 -82 12 -12 21 -25 21 -30 0 -4 5 -8 10
-8 6 0 55 -45 110 -101 55 -55 104 -98 110 -94 5 3 10 1 10 -5 0 -13 38 -4 55
14 18 18 45 78 39 87 -3 5 -1 9 4 9 5 0 13 10 17 22 10 31 12 37 15 43 1 3 3
8 5 13 7 25 20 48 32 55 7 5 11 13 7 18 -3 6 4 30 15 54 12 25 21 50 21 55 0
6 4 9 9 6 5 -4 8 2 6 11 -1 10 4 26 13 36 8 9 12 17 9 17 -3 0 0 12 8 27 8 15
12 30 9 35 -3 4 -2 8 3 8 7 0 36 53 38 70 3 17 30 80 35 80 4 0 7 6 7 13 0 8
9 34 20 58 28 59 36 83 35 91 -2 9 28 6 44 -5 6 -3 14 -29 18 -57 4 -27 10
-50 14 -50 4 0 7 -16 6 -35 -1 -19 3 -35 8 -35 6 0 8 -7 4 -15 -3 -8 6 -28 20
-45 26 -31 54 -40 54 -17 0 8 4 7 10 -3 5 -8 10 -10 10 -4 0 6 11 10 25 9 14
-2 25 1 25 6 0 5 7 9 15 9 8 0 15 6 15 13 0 7 9 18 19 24 17 10 19 21 15 69
-2 31 -8 62 -12 68 -5 6 -8 20 -7 31 0 11 -4 29 -9 40 -6 11 -11 27 -12 35 -2
8 -5 29 -8 45 -2 17 -2 24 0 18 4 -9 11 -10 22 -4 9 5 21 11 26 13 16 5 119
108 110 108 -5 0 -2 5 6 10 8 5 15 17 16 27 3 46 5 53 15 53 6 0 23 -9 37 -19
15 -10 29 -19 32 -19 3 -1 22 -8 42 -16 21 -9 44 -16 51 -16 8 0 17 -3 21 -7
3 -4 14 -9 24 -11 46 -9 79 -14 95 -14 9 1 17 -5 17 -11 0 -8 3 -7 9 2 6 9 14
10 27 4 11 -5 44 -8 74 -7 30 0 58 -4 62 -10 5 -8 8 -8 8 0 0 8 15 11 40 10
23 -1 43 0 45 4 2 4 22 6 44 4 41 -2 88 27 76 47 -4 5 -9 33 -11 62 -3 28 -8
53 -12 55 -5 1 -7 16 -6 33 1 17 -4 48 -11 68 -8 20 -14 32 -14 27 -1 -5 -9
-2 -18 5 -12 10 -15 11 -9 1 6 -9 1 -11 -20 -8 -15 3 -36 0 -47 -5 -14 -8 -22
-8 -28 2 -6 10 -10 10 -24 -1 -12 -10 -21 -10 -40 -2 -19 9 -25 9 -25 -1 0 -7
-3 -8 -8 -2 -7 9 -27 14 -79 16 -13 1 -23 5 -23 10 0 4 -9 6 -20 4 -11 -2 -20
0 -20 5 0 5 -9 7 -20 5 -11 -2 -20 -1 -20 3 0 9 -49 32 -67 32 -7 0 -13 5 -13
11 0 5 -3 8 -7 6 -5 -3 -16 3 -25 12 -16 16 -16 18 6 44 13 15 26 24 30 20 3
-3 6 0 6 8 0 13 31 40 45 39 3 0 18 6 34 14 16 9 31 12 34 9 4 -3 8 0 11 8 2
8 7 23 12 34 4 11 8 23 9 28 2 4 3 8 5 10 1 1 3 10 5 20 2 10 50 64 107 121
57 56 118 119 136 140 17 20 32 33 32 29 0 -9 34 38 36 50 1 4 2 13 3 20 1 18
68 87 83 87 6 0 9 3 5 6 -6 7 121 134 134 134 5 0 8 3 7 8 -1 4 14 24 35 45
20 20 37 34 37 30 1 -5 8 5 16 20 8 15 19 25 24 22 6 -4 10 -2 10 2 0 13 79
93 92 93 6 0 8 3 5 6 -7 7 42 54 56 54 5 0 6 4 2 9 -3 5 -1 12 5 16 6 4 8 10
5 15 -2 4 4 18 14 31 24 31 20 65 -10 93 -24 22 -24 23 -57 4 -37 -20 -46 -22
-37 -8 3 6 -1 10 -10 10 -9 0 -13 5 -10 10 3 6 2 10 -4 10 -6 0 -21 11 -35 25
-25 25 -76 35 -76 14z m43 -51 c15 -16 18 -48 4 -48 -12 0 -36 31 -37 48 0 6
5 12 11 12 6 0 16 -6 22 -12z m157 -74 c0 -8 -4 -14 -10 -14 -5 0 -10 -10 -10
-23 0 -12 -13 -34 -30 -49 -16 -14 -26 -29 -22 -33 4 -5 1 -5 -6 -1 -8 5 -16
-1 -21 -16 -6 -13 -10 -19 -10 -14 -1 5 -14 -8 -31 -29 -16 -21 -30 -36 -30
-33 0 3 -81 -75 -179 -173 -98 -99 -181 -179 -184 -179 -9 0 -81 75 -82 85 0
13 32 45 45 45 6 0 1 -9 -10 -20 -25 -25 -25 -32 3 -58 22 -20 24 -21 48 -4
35 24 193 186 197 202 2 8 -3 10 -13 7 -8 -4 -15 -2 -15 4 0 9 15 18 42 23 35
7 60 26 143 110 50 49 84 86 77 82 -9 -6 -12 -2 -10 10 4 24 48 70 64 66 7 -1
15 7 19 18 7 22 25 18 25 -6z m-393 -301 c-3 -2 -14 0 -24 7 -16 10 -16 11 0
6 9 -3 17 0 18 7 0 8 2 8 6 -1 3 -7 3 -16 0 -19z m-66 -26 c-13 -12 -20 -15
-15 -7 12 22 28 39 33 34 3 -3 -6 -15 -18 -27z m10 -56 c-27 -28 -42 -38 -47
-30 -4 8 -3 9 4 5 7 -4 12 -2 12 3 0 12 61 73 67 68 2 -2 -14 -23 -36 -46z
m-49 17 c-7 -7 -12 -8 -12 -2 0 6 3 14 7 17 3 4 9 5 12 2 2 -3 -1 -11 -7 -17z
m-29 -23 c-3 -9 -8 -14 -10 -11 -3 3 -2 9 2 15 9 16 15 13 8 -4z m22 -57 c-11
-6 -25 -19 -32 -27 -16 -21 -16 -6 -1 19 7 11 22 20 33 20 20 -1 20 -1 0 -12z
m-151 -59 c14 -7 23 -16 20 -20 -3 -5 -1 -9 5 -9 5 0 28 -19 51 -41 l42 -41
-32 -29 c-17 -16 -29 -29 -26 -29 7 0 -41 -49 -87 -87 -22 -18 -35 -33 -30
-33 4 0 -5 -9 -22 -20 -16 -11 -27 -20 -23 -20 4 0 -15 -22 -42 -49 -28 -27
-50 -55 -50 -62 0 -6 -5 -29 -11 -49 -10 -31 -16 -38 -35 -35 -13 1 -24 -2
-24 -6 0 -5 -3 -8 -7 -7 -14 4 -54 -23 -48 -32 13 -22 -39 2 -64 29 -28 29
-28 31 -11 51 9 11 20 17 24 13 3 -3 6 -2 6 4 0 13 63 79 72 75 5 -1 8 4 8 12
0 8 6 16 14 19 20 8 27 47 10 54 -8 3 -11 9 -8 14 3 5 -1 9 -10 9 -37 0 -13
34 113 161 75 76 137 138 138 138 1 1 13 -4 27 -10z m-302 -336 c-2 -7 -8 -13
-14 -13 -5 0 -6 5 -3 10 6 10 -6 14 -37 11 -10 -1 -18 3 -18 10 0 8 -4 8 -15
-1 -9 -7 -18 -10 -22 -6 -7 7 25 40 47 48 18 6 68 -42 62 -59z m-75 -28 c15
-2 31 -4 35 -4 12 -1 -2 -29 -17 -35 -8 -3 -21 1 -29 9 -11 12 -21 13 -42 5
-37 -14 -49 1 -23 29 16 17 24 19 34 11 7 -6 26 -13 42 -15z m-103 -66 c-3 -5
-10 -7 -15 -3 -5 3 -7 10 -3 15 3 5 10 7 15 3 5 -3 7 -10 3 -15z m59 -31 c-12
-13 -20 -15 -35 -7 -23 12 -19 31 6 35 10 1 20 5 24 8 14 15 19 -20 5 -36z
m-8 -84 l65 -67 -36 -33 c-19 -19 -33 -34 -30 -34 3 0 -2 -8 -11 -19 -53 -56
-73 -80 -73 -88 0 -5 -9 -15 -20 -23 -11 -8 -20 -20 -20 -27 0 -6 -10 -19 -22
-27 -12 -9 -19 -16 -15 -16 4 0 2 -6 -5 -14 -16 -17 -33 -9 -18 9 8 10 7 14
-6 17 -12 2 -51 -30 -110 -90 -98 -99 -111 -117 -88 -126 8 -3 17 1 20 9 4 8
10 12 15 9 11 -6 -44 -64 -61 -64 -6 0 -9 -3 -7 -7 5 -11 -85 -97 -106 -101
-9 -2 -17 3 -17 10 0 8 -13 22 -30 31 -18 11 -30 27 -31 40 -3 75 0 125 9 147
13 30 88 111 96 102 3 -3 6 2 6 11 0 8 9 19 20 22 11 4 18 10 15 15 -3 4 5 10
16 13 12 3 19 9 17 14 -5 10 79 92 87 85 3 -3 5 2 5 11 0 9 5 16 12 14 7 -1
12 4 13 12 0 17 21 26 28 13 3 -4 -54 -67 -127 -139 -113 -113 -131 -134 -124
-153 4 -12 12 -18 18 -15 6 4 8 11 5 16 -4 5 -2 9 3 9 10 0 184 170 174 170
-4 1 6 8 21 16 15 8 25 19 22 24 -4 6 -2 10 4 10 5 0 20 14 32 32 13 17 17 28
11 24 -7 -4 -19 -3 -27 4 -16 13 -9 40 11 40 8 0 14 7 14 15 0 8 5 15 10 15 6
0 19 9 30 20 11 11 17 20 13 20 -5 0 4 8 20 18 15 10 25 21 21 24 -3 4 4 9 15
13 11 3 23 15 26 26 4 10 11 17 16 14 5 -4 9 -1 9 4 0 23 21 9 85 -55z m57
-194 c14 -10 29 -16 33 -12 5 4 5 -1 2 -10 -4 -12 -2 -15 9 -11 7 3 14 1 14
-4 0 -5 7 -10 15 -11 8 -1 22 -3 30 -4 8 -1 15 -5 15 -10 0 -4 9 -8 20 -8 11
0 20 -4 20 -9 0 -5 11 -8 24 -7 32 4 54 -10 40 -24 -7 -7 -26 -5 -65 7 -30 9
-56 20 -59 23 -3 3 -20 12 -38 19 -18 8 -39 23 -47 34 -8 12 -20 17 -29 14
-13 -5 -14 -11 -4 -32 6 -14 17 -25 25 -25 7 0 13 -5 13 -11 0 -5 5 -7 10 -4
6 3 10 1 10 -4 0 -6 6 -11 14 -11 8 0 16 -5 18 -10 2 -6 14 -12 28 -14 14 -1
35 -8 46 -14 12 -6 24 -8 28 -5 3 3 6 2 6 -3 0 -6 11 -11 25 -12 47 -3 54 -5
49 -14 -7 -12 -34 -10 -34 2 0 7 -6 7 -20 0 -12 -6 -20 -7 -20 -1 0 5 -11 8
-24 7 -16 -2 -23 1 -19 9 2 7 0 16 -6 20 -6 3 -11 -1 -11 -9 0 -12 -8 -11 -42
7 -24 12 -46 27 -50 32 -4 6 -8 6 -8 1 0 -4 -17 4 -37 20 -24 18 -38 24 -41
16 -2 -7 -8 -10 -13 -6 -5 3 -9 2 -9 -1 0 -9 22 -30 40 -38 19 -9 47 -27 79
-49 13 -10 27 -15 32 -12 5 3 12 -1 14 -8 3 -8 18 -13 35 -12 17 1 30 -2 30
-8 0 -5 5 -6 10 -3 6 3 10 2 10 -2 0 -5 16 -8 37 -8 20 0 38 -5 40 -11 3 -10
-16 -8 -131 11 -17 3 -32 8 -35 13 -6 7 -28 14 -48 15 -7 0 -13 3 -13 6 0 3
-13 12 -29 19 -16 7 -40 23 -54 36 l-26 24 -18 -21 c-10 -11 -12 -17 -5 -13 6
4 12 3 12 -3 0 -12 86 -71 105 -71 7 0 15 -4 17 -8 4 -11 108 -43 119 -36 5 3
9 1 9 -5 0 -5 8 -10 18 -10 39 -1 78 -7 90 -14 7 -5 12 -3 12 3 0 6 5 8 10 5
6 -4 7 -12 3 -18 -5 -8 -2 -8 9 0 8 7 18 10 22 6 4 -4 11 -1 16 7 6 9 10 10
10 3 0 -10 25 -11 55 -3 6 2 18 0 28 -5 10 -4 23 -2 32 5 8 6 19 9 25 5 6 -4
22 0 35 9 30 20 34 20 31 1 -1 -9 -5 -14 -7 -13 -3 2 -13 -5 -23 -15 -14 -13
-21 -15 -32 -6 -7 6 -19 7 -26 3 -16 -10 -209 -13 -223 -4 -10 7 -37 10 -87
13 -16 0 -28 4 -28 8 0 3 -12 7 -26 7 -15 0 -29 3 -33 8 -3 5 -17 10 -30 12
-25 4 -121 59 -133 76 -4 6 -8 7 -8 3 0 -4 -11 4 -25 19 l-24 26 27 30 c15 17
35 39 45 49 9 11 18 22 19 27 4 11 32 42 39 42 3 0 18 -9 31 -20z m336 -115
c3 -3 11 0 18 5 8 8 16 6 26 -3 12 -12 17 -13 33 -1 24 18 41 18 26 0 -15 -18
-45 -26 -62 -16 -7 5 -23 4 -36 -1 -12 -5 -23 -5 -23 0 0 4 -17 7 -37 5 -42
-2 -56 3 -47 17 5 9 92 4 102 -6z m183 -19 c0 -11 3 -30 5 -41 11 -49 10 -66
-4 -77 -13 -11 -15 -10 -9 4 3 10 1 20 -4 24 -6 3 -8 17 -5 30 6 22 4 23 -19
14 -17 -6 -26 -6 -31 3 -4 7 -4 9 0 5 4 -3 17 3 28 14 16 16 18 22 7 29 -7 4
-18 5 -24 3 -5 -3 -2 1 8 10 24 19 47 10 48 -18z m-84 -31 c0 -8 -5 -15 -11
-16 -6 0 -19 -2 -28 -4 -28 -5 -21 12 10 23 15 6 27 11 28 11 0 1 1 -6 1 -14z
m-127 -6 c0 -8 -42 -20 -49 -14 -2 3 1 5 8 5 7 0 10 4 7 8 -2 4 4 8 15 8 10 0
19 -3 19 -7z m48 -1 c-3 -7 -13 -15 -23 -16 -15 -4 -16 -2 -4 12 17 19 32 21
27 4z m-510 -38 c-2 -6 -13 -3 -27 6 -17 12 -20 19 -10 24 14 9 43 -14 37 -30z
m-121 4 c-3 -3 -12 -4 -19 -1 -8 3 -5 6 6 6 11 1 17 -2 13 -5z m65 -18 c7 4 8
2 4 -4 -3 -6 3 -16 14 -22 21 -11 28 -40 10 -40 -5 0 -10 -6 -10 -13 0 -7 -9
-18 -20 -25 -16 -10 -20 -10 -18 0 2 7 -9 14 -24 16 -26 3 -43 25 -32 43 3 5
10 7 15 4 5 -4 9 -1 9 6 0 18 34 53 38 40 2 -6 9 -8 14 -5z m511 2 c3 -10 9
-10 24 -1 14 8 24 8 31 1 6 -6 22 -6 46 0 19 6 35 7 35 4 -3 -19 3 -21 24 -7
13 8 27 12 30 8 12 -12 7 -22 -10 -22 -10 -1 -43 -2 -73 -4 -30 -3 -61 0 -67
6 -9 6 -13 6 -13 -1 0 -6 -9 -10 -19 -9 -11 0 -17 5 -15 9 8 13 -11 9 -25 -4
-10 -11 -12 -10 -9 2 6 27 33 39 41 18z m-613 -17 c-10 -20 -30 -37 -30 -27 0
6 33 46 38 46 1 0 -2 -9 -8 -19z m-56 -56 c-4 -8 -11 -12 -16 -9 -6 4 -5 10 3
15 19 12 19 11 13 -6z m112 -77 c3 -4 -4 -12 -14 -17 -15 -8 -23 -6 -38 10
-17 19 -17 20 15 17 18 -1 35 -6 37 -10z m-121 -8 c-3 -5 0 -10 8 -10 17 0 28
-32 17 -50 -5 -7 -2 -35 6 -62 8 -27 12 -52 9 -57 -3 -5 -1 -11 4 -13 5 -1 12
-16 14 -33 3 -16 10 -45 16 -62 7 -26 6 -36 -5 -48 -8 -8 -15 -18 -15 -22 0
-12 -67 -33 -84 -27 -8 4 -15 17 -15 30 0 35 -1 38 -12 51 -5 7 -7 17 -3 23 3
5 2 10 -4 10 -5 0 -8 11 -6 25 1 14 -2 28 -6 31 -5 3 -9 18 -9 35 0 18 -7 33
-20 41 -11 7 -20 17 -20 22 0 5 27 36 61 68 58 55 78 70 64 48z m-280 -111
c-4 -5 1 -9 9 -9 9 0 22 -13 30 -29 14 -25 14 -30 1 -41 -8 -7 -13 -16 -10
-20 3 -5 0 -14 -7 -22 -7 -7 -14 -22 -16 -33 -2 -11 -14 -42 -27 -70 -21 -45
-38 -92 -38 -105 0 -3 -7 -10 -16 -17 -9 -7 -13 -13 -8 -13 4 0 1 -13 -8 -30
-9 -16 -13 -30 -10 -30 4 0 0 -7 -9 -15 -8 -9 -12 -23 -9 -32 4 -11 3 -14 -5
-9 -8 5 -12 -1 -12 -17 0 -14 -7 -30 -15 -37 -8 -6 -14 -15 -13 -18 0 -4 -1
-10 -2 -14 -1 -5 -3 -11 -5 -15 -2 -9 -27 -68 -54 -128 -10 -22 -26 -58 -36
-81 -11 -25 -24 -41 -34 -40 -15 1 -87 65 -207 184 -43 43 -54 62 -34 62 6 0
10 6 10 13 0 6 17 31 38 54 20 24 53 64 72 90 19 26 44 55 54 65 11 10 17 18
13 18 -4 0 1 9 11 19 9 11 28 33 42 51 14 17 30 36 36 43 5 7 22 30 37 52 15
22 27 36 27 31 0 -5 6 -3 13 3 8 6 17 8 20 4 4 -3 7 -1 7 6 0 7 4 10 8 7 10
-6 31 17 58 62 10 18 22 32 26 32 4 0 7 3 6 8 -1 4 4 17 12 29 11 17 18 19 32
12 10 -6 16 -14 13 -20z"/>
<path d="M4357 3054 c-24 -23 -41 -47 -39 -54 3 -9 0 -10 -9 -5 -8 5 -5 -2 6
-14 14 -16 21 -19 24 -9 5 16 41 48 53 48 5 0 7 3 5 8 -6 8 19 33 26 26 2 -3
7 6 9 18 7 38 -27 29 -75 -18z"/>
<path d="M4234 2934 c-12 -13 -19 -25 -16 -28 3 -3 0 -6 -7 -6 -18 0 -36 -21
-39 -47 -2 -14 2 -23 10 -23 15 1 102 87 110 110 9 24 -34 19 -58 -6z"/>
<path d="M3851 2591 c-21 -16 -22 -20 -10 -39 12 -18 15 -19 29 -7 10 9 20 11
30 5 9 -6 10 -10 3 -10 -7 0 -37 -25 -68 -55 -30 -30 -60 -55 -66 -55 -5 0 -8
-4 -4 -9 3 -6 -2 -14 -12 -19 -9 -6 -17 -19 -18 -31 -1 -11 1 -19 3 -16 3 3
12 -1 21 -7 9 -7 13 -9 10 -5 -4 5 11 27 33 50 25 26 42 37 45 30 7 -20 27
-15 68 17 21 17 34 30 30 30 -4 0 4 9 18 20 14 11 25 29 24 40 -1 23 -2 23
-26 10 -16 -8 -17 -6 -13 17 5 27 6 27 -41 8 -8 -3 -17 5 -22 19 -10 25 -10
25 -34 7z m85 -83 c4 -7 3 -8 -4 -4 -7 4 -12 2 -12 -5 0 -7 -3 -10 -6 -6 -6 5
3 27 11 27 2 0 7 -5 11 -12z"/>
<path d="M3682 2320 c-10 -17 -10 -21 3 -27 9 -3 14 -12 11 -19 -3 -8 -1 -14
4 -14 6 0 10 5 10 11 0 5 4 8 9 5 19 -12 19 23 0 43 -24 25 -21 25 -37 1z"/>
<path d="M3640 2277 c0 -24 26 -51 44 -44 16 6 16 8 0 32 -17 27 -44 34 -44
12z"/>
<path d="M3610 2260 c-8 -26 -5 -41 10 -55 26 -23 42 -11 28 20 -6 13 -14 22
-19 20 -4 -3 -10 1 -12 7 -3 7 -6 11 -7 8z"/>
<path d="M3565 2210 c3 -5 0 -10 -7 -10 -7 0 0 -12 15 -27 20 -21 29 -25 38
-16 9 9 9 16 1 26 -7 8 -8 18 -4 22 4 5 2 5 -5 1 -6 -3 -14 -2 -18 4 -3 5 -11
10 -16 10 -6 0 -7 -4 -4 -10z"/>
<path d="M3527 2169 c-14 -8 -14 -13 -5 -29 7 -10 16 -16 20 -14 4 3 8 1 8 -4
0 -5 7 -9 15 -9 11 0 13 6 9 21 -10 32 -28 45 -47 35z"/>
<path d="M3460 2091 c0 -8 -3 -12 -6 -8 -12 12 -38 -26 -39 -59 -2 -23 2 -34
12 -34 8 0 12 -4 9 -9 -11 -17 45 -19 65 -2 37 30 27 97 -15 99 -5 0 -13 6
-17 14 -7 11 -9 10 -9 -1z m30 -67 c0 -16 -9 -18 -29 -5 -7 5 -11 14 -7 19 9
15 36 4 36 -14z"/>
<path d="M4030 2246 c0 -2 7 -7 16 -10 8 -3 12 -2 9 4 -6 10 -25 14 -25 6z"/>
<path d="M3324 1761 c4 -6 3 -11 -2 -11 -5 0 -9 -6 -9 -13 0 -8 -9 -34 -21
-58 -35 -75 -55 -124 -54 -131 1 -5 -2 -8 -7 -8 -5 0 -11 -12 -13 -27 l-4 -28
-13 30 -12 30 -19 -25 c-10 -13 -18 -27 -18 -30 2 -8 -21 -62 -42 -101 -11
-20 -20 -43 -20 -52 0 -8 -9 -26 -21 -41 -11 -14 -18 -26 -15 -26 3 0 -2 -16
-10 -35 -18 -44 -18 -45 6 -45 13 0 20 7 20 19 0 10 7 21 15 25 8 3 15 3 15 1
0 -12 -24 -55 -31 -55 -4 0 -6 -9 -4 -20 2 -11 -2 -20 -8 -20 -7 0 -4 -5 6
-11 20 -12 40 4 45 36 2 11 8 22 13 23 5 2 9 12 9 21 0 10 3 21 8 25 4 4 7 11
8 14 0 4 9 25 19 47 10 22 19 42 20 45 1 3 10 23 20 45 10 22 19 43 20 48 2 4
4 9 5 12 1 3 4 8 5 13 11 33 31 72 38 72 4 0 6 4 2 9 -3 5 -1 12 5 16 6 4 8
11 5 16 -4 5 -1 9 4 9 6 0 10 3 9 8 -1 4 6 24 15 46 9 21 17 42 17 47 0 5 5 9
11 9 5 0 8 4 4 9 -3 5 1 15 8 23 20 20 14 43 -12 46 -15 2 -21 0 -17 -7z
m-124 -301 c0 -5 -2 -10 -4 -10 -3 0 -8 5 -11 10 -3 6 -1 10 4 10 6 0 11 -4
11 -10z m-13 -27 c-9 -19 -41 -88 -42 -93 -4 -19 -41 -90 -47 -90 -8 0 6 35
34 88 10 18 18 39 18 47 0 8 5 15 10 15 6 0 9 3 9 8 -3 18 2 32 12 32 5 0 8
-3 6 -7z"/>
<path d="M2538 3635 c-2 -2 -25 -5 -53 -8 -44 -5 -67 -9 -125 -22 -8 -2 -17
-4 -20 -5 -3 -1 -8 -2 -12 -1 -5 0 -8 -3 -8 -9 0 -5 -3 -9 -7 -8 -13 3 -103
-44 -103 -53 0 -5 -4 -9 -9 -9 -16 0 -73 -62 -94 -104 -22 -42 -26 -53 -32
-96 -1 -14 -4 -26 -5 -27 -6 -7 -23 -111 -25 -148 0 -17 -3 -35 -6 -40 -3 -6
-4 -20 -3 -32 0 -13 -1 -23 -5 -23 -3 0 -5 -26 -4 -57 1 -32 -3 -80 -9 -108
-6 -27 -11 -65 -12 -85 -1 -19 -5 -41 -9 -48 -5 -7 -3 -12 3 -12 8 0 8 -6 0
-20 -6 -11 -7 -20 -3 -20 4 0 9 -19 11 -43 3 -50 6 -69 13 -82 8 -14 23 -68
21 -77 -1 -5 3 -8 8 -8 6 0 10 -10 10 -22 1 -13 7 -34 14 -47 12 -21 11 -29
-7 -59 -11 -19 -21 -50 -23 -69 -2 -32 -14 -61 -14 -34 0 11 -69 -54 -71 -68
-6 -30 -3 -101 3 -101 4 0 7 -3 7 -7 -4 -27 3 -63 11 -58 6 3 10 -1 10 -10 0
-18 32 -68 65 -100 33 -33 102 -85 113 -85 5 0 15 -7 22 -15 6 -8 15 -14 18
-13 4 1 17 -3 30 -10 12 -7 22 -10 22 -6 0 3 6 2 13 -3 17 -14 83 -32 135 -36
12 -1 22 -6 22 -11 0 -4 11 -6 25 -4 13 3 26 0 29 -6 3 -7 5 -7 5 1 1 9 8 10
24 5 39 -14 159 -3 277 23 14 4 30 7 37 9 7 1 16 5 19 9 4 4 16 7 26 7 10 0
18 5 18 12 0 6 3 9 6 5 12 -12 126 59 184 115 24 23 70 83 70 91 0 3 7 22 16
43 18 42 25 122 12 130 -5 3 -6 9 -3 14 3 5 -6 21 -20 36 -14 15 -25 24 -25
20 0 -17 -36 32 -38 52 -4 45 -6 52 -14 52 -4 0 -8 6 -8 14 0 8 -5 16 -11 18
-9 3 -9 10 0 27 7 12 15 35 17 49 3 15 8 29 12 32 7 5 10 14 17 53 2 9 7 23
12 30 10 16 12 31 15 89 1 28 6 44 13 41 5 -3 5 0 -2 7 -9 9 -9 19 -2 33 6 11
7 17 2 14 -5 -3 -10 11 -10 31 -1 20 -4 51 -7 67 -6 30 -13 88 -20 176 -1 25
-6 51 -10 57 -3 6 -2 13 4 17 6 4 7 12 3 18 -8 12 -8 16 -17 77 -3 19 -8 51
-12 70 -4 19 -8 45 -8 58 -1 12 -4 22 -8 22 -5 0 -8 8 -8 17 0 9 -14 40 -31
68 -59 97 -199 174 -350 191 -52 6 -128 11 -131 9z m-273 -595 c0 -1 15 -6 45
-13 8 -2 38 -14 65 -27 28 -13 53 -23 58 -22 4 1 7 -5 7 -15 0 -9 3 -13 6 -10
10 9 44 -12 44 -27 0 -13 -72 -53 -112 -62 -116 -27 -175 -15 -213 42 -19 29
-28 94 -13 94 5 0 6 5 3 11 -4 6 2 13 14 16 12 3 21 9 21 13 0 4 17 6 38 4 20
-1 37 -3 37 -4z m683 1 c1 -1 4 0 7 2 7 4 34 -37 29 -45 -3 -5 -1 -8 5 -8 12
0 4 -44 -15 -82 -24 -46 -72 -61 -186 -57 -10 0 -18 4 -18 10 0 5 -9 9 -21 9
-21 0 -73 25 -96 46 -9 8 -7 15 8 27 10 9 19 14 19 12 0 -3 10 3 22 15 12 11
30 20 40 20 10 0 18 5 18 10 0 6 3 9 8 8 4 -1 19 4 35 10 15 7 39 14 53 16 15
3 28 7 30 9 4 3 52 2 62 -2z m-282 -527 c62 -21 72 -36 44 -71 -11 -14 -20
-22 -20 -18 0 4 -6 2 -13 -4 -8 -6 -17 -8 -20 -4 -4 3 -7 1 -7 -6 0 -7 -7 -11
-15 -8 -8 4 -17 3 -19 -2 -4 -6 -91 -8 -91 -1 0 1 -11 4 -25 6 -13 2 -27 9
-31 15 -3 6 -10 11 -15 11 -22 1 -46 27 -40 45 9 25 70 55 85 40 8 -8 11 -7
11 4 0 20 87 17 156 -7z"/>
</g>
</svg>
